<?xml version="1.0" encoding="utf-8"?>
<svg xmlns="http://www.w3.org/2000/svg" viewBox="10.819 11.318 65 65" width="65px" height="65px">
    <rect width="65" height="65" style="fill: rgb(47, 153, 164);" x="10.819" y="11.318"
          transform="matrix(1, 0, 0, 1, 0, 2.842170943040401e-14)"/>
    <g transform="matrix(1, 0, 0, 1, 10, 10)">
        <polygon id="Path" points="5.79 5 60.5 5 60.5 59.71 5.79 59.71 5.79 5" style="fill: none;"/>
        <path d="M16.69,21H48.6a2.28,2.28,0,0,0,0-4.56H16.69a2.28,2.28,0,0,0,0,4.56Zm27,9.12h-27a2.28,2.28,0,1,0,0,4.56H44.34a4.71,4.71,0,0,1,4.76,3.78,4.57,4.57,0,0,1-4.49,5.34H39.48V42a1.13,1.13,0,0,0-1.94-.79l-4.08,4.08a1.14,1.14,0,0,0,0,1.62l4.08,4.08a1.13,1.13,0,0,0,1.94-.8V48.31H44a9.12,9.12,0,0,0,9.08-10A9.38,9.38,0,0,0,43.65,30.08ZM25.8,43.76H16.69a2.28,2.28,0,1,0,0,4.55H25.8a2.28,2.28,0,1,0,0-4.55Z"
              transform="translate(0.5 0)" style="fill: rgb(255, 255, 255); fill-rule: evenodd;"/>
    </g>
</svg>