<?xml version="1.0" encoding="UTF-8" standalone="no"?>
<svg
   viewBox="0 0 65.5 64.5"
   version="1.1"
   id="svg1"
   sodipodi:docname="Extension2.svg"
   inkscape:version="1.3.2 (091e20e, 2023-11-25, custom)"
   xmlns:inkscape="http://www.inkscape.org/namespaces/inkscape"
   xmlns:sodipodi="http://sodipodi.sourceforge.net/DTD/sodipodi-0.dtd"
   xmlns="http://www.w3.org/2000/svg"
   xmlns:svg="http://www.w3.org/2000/svg"
   xmlns:rdf="http://www.w3.org/1999/02/22-rdf-syntax-ns#"
   xmlns:cc="http://creativecommons.org/ns#"
   xmlns:dc="http://purl.org/dc/elements/1.1/">
  <sodipodi:namedview
     id="namedview1"
     pagecolor="#ffffff"
     bordercolor="#666666"
     borderopacity="1.0"
     inkscape:showpageshadow="2"
     inkscape:pageopacity="0.0"
     inkscape:pagecheckerboard="0"
     inkscape:deskcolor="#d1d1d1"
     inkscape:zoom="18.496124"
     inkscape:cx="32.736588"
     inkscape:cy="32.25"
     inkscape:window-width="3440"
     inkscape:window-height="1369"
     inkscape:window-x="-8"
     inkscape:window-y="-8"
     inkscape:window-maximized="1"
     inkscape:current-layer="svg1" />
  <defs
     id="defs1">
    <style
       id="style1">.cls-1{fill:#2f99a4;}.cls-4{fill:none;}.cls-3{fill:#fff;fill-rule:evenodd;}</style>
  </defs>
  <title
     id="title1">TextDb</title>
  <rect
     class="cls-1"
     width="65.5"
     height="64.5"
     id="rect1" />
  <g
     id="g1">
    <polygon
       id="Path"
       class="cls-4"
       points="5.79 5 60.5 5 60.5 59.71 5.79 59.71 5.79 5" />
    <path
       class="cls-3"
       d="M16.69,21H48.6a2.28,2.28,0,0,0,0-4.56H16.69a2.28,2.28,0,0,0,0,4.56Zm27,9.12h-27a2.28,2.28,0,1,0,0,4.56H44.34a4.71,4.71,0,0,1,4.76,3.78,4.57,4.57,0,0,1-4.49,5.34H39.48V42a1.13,1.13,0,0,0-1.94-.79l-4.08,4.08a1.14,1.14,0,0,0,0,1.62l4.08,4.08a1.13,1.13,0,0,0,1.94-.8V48.31H44a9.12,9.12,0,0,0,9.08-10A9.38,9.38,0,0,0,43.65,30.08ZM25.8,43.76H16.69a2.28,2.28,0,1,0,0,4.55H25.8a2.28,2.28,0,1,0,0-4.55Z"
       transform="translate(0.5 0)"
       id="path1" />
  </g>
  <metadata
     id="metadata1">
    <rdf:RDF>
      <cc:Work
         rdf:about="">
        <dc:title>TextDb</dc:title>
      </cc:Work>
    </rdf:RDF>
  </metadata>
</svg>
