<svg width="64px" height="64px" viewBox="0 0 48.00 48.00" xmlns="http://www.w3.org/2000/svg" stroke-width="1.5">
    <rect x="0" y="0" width="48.00" height="48.00" rx="0" fill="#2999A4" stroke-width="0"></rect>
    <g fill="none" stroke="#ffffff" stroke-linecap="round" stroke-linejoin="round">
        <line x1="10.3148" y1="35.6362" x2="14.4567" y2="24.4924"></line>
        <line x1="18.4271" y1="35.6694" x2="14.4567" y2="24.4924"></line>
        <line x1="17.0988" y1="31.9306" x2="11.6921" y2="31.9306"></line>
        <line x1="25.8582" y1="13.3468" x2="38.3148" y2="13.3468"></line>
        <line x1="32.0865" y1="10.879" x2="32.0865" y2="13.3468"></line>
        <path d="M35.5727,13.3468c0,3.408-3.9563,9.0486-7.9125,9.91"></path>
        <path d="M28.2871,16.4414c.3917,2.35,4.4656,6.2674,8.089,6.8158"></path>
        <path d="M26.7456,34.933a5.1656,5.1656,0,0,0,5.1656-5.1655V27.1924"></path>
        <polyline points="29.581 29.522 31.911 27.192 34.242 29.522"></polyline>
        <path d="M19.5371,13.3468a5.1656,5.1656,0,0,0-5.1655,5.1656v2.5751"></path>
        <polyline points="16.701 18.758 14.372 21.087 12.04 18.758"></polyline>
        <path d="M40.5,5.5H7.5a2,2,0,0,0-2,2h0v33a2,2,0,0,0,2,2h33a2,2,0,0,0,2-2h0V7.5a2,2,0,0,0-2-2Z"></path>
    </g>
</svg>